# xmcd
#
# Track frame offsets:
#	150
#	16226
#	32226
#	57540
#	80437
#	100908
#	122018
#	140351
#	158591
#	179568
#	197530
#	214918
#	231500
#	245365
#	264370
#	288069
#	320826
#
# Disc length: 4636 seconds
#
# Revision: 0
# Processed by: cddbd v1.5.2PL0 Copyright (c) Steve Scherf et al.
# Submitted via: EasyCDDAExtractor 2010.6.0.0
#
DISCID=f1121a11
DTITLE=Jaki Graham - Breaking Away
DYEAR=2010
DGENRE=Pop
TTITLE0=Set Me Free
TTITLE1=Breaking Away
TTITLE2=Still In Love
TTITLE3=Love Under Moonlight
TTITLE4=Let's Get Blue
TTITLE5=Stop The World
TTITLE6=Luv 2 Much
TTITLE7=The Love Of Your Life
TTITLE8=The Closest One
TTITLE9=Step Right Up
TTITLE10=Mated (Duet with David Grant)
TTITLE11=Love Me Tonight
TTITLE12=Breaking Away (7" Version)
TTITLE13=Set Me Free (Extended Version)
TTITLE14=Breaking Away (Extended Version)
TTITLE15=Still In Love (Lights Down - Lower Mix)
TTITLE16=Luv 2 Much (Too Much 12" Mix)
EXTD=
EXTT0=
EXTT1=
EXTT2=
EXTT3=
EXTT4=
EXTT5=
EXTT6=
EXTT7=
EXTT8=
EXTT9=
EXTT10=
EXTT11=
EXTT12=
EXTT13=
EXTT14=
EXTT15=
EXTT16=
PLAYORDER=
